<svg xmlns="http://www.w3.org/2000/svg" width="211" height="38" viewBox="0 0 211 38"><defs><style>.a{fill:#0d2531;}.b,.d{fill:none;}.b{stroke:#0d2531;}.c{stroke:none;}</style></defs><g transform="translate(-210 -8430)"><g transform="translate(98.381 8438)"><path class="a" d="M132.441,7.208v-1.9a4.176,4.176,0,0,1,.04-.661,1.283,1.283,0,0,1,.18-.461.736.736,0,0,1,.454-.314,3.231,3.231,0,0,1,.835-.087h1.9V0h-3.03a4.932,4.932,0,0,0-3.778,1.248,5.257,5.257,0,0,0-1.148,3.678V7.208h-2.27V11h2.269V22h4.552V11h3.03l.4-3.791Z" transform="translate(0)"/></g><g class="b" transform="translate(210 8430)"><circle class="c" cx="19" cy="19" r="19"/><circle class="d" cx="19" cy="19" r="18.5"/></g><g transform="translate(0)"><path class="a" d="M21.169,50.036a9.048,9.048,0,0,1-2.5.685,4.315,4.315,0,0,0,1.909-2.4,8.673,8.673,0,0,1-2.752,1.05,4.339,4.339,0,0,0-7.507,2.968,4.468,4.468,0,0,0,.1.99,12.284,12.284,0,0,1-8.945-4.539,4.341,4.341,0,0,0,1.334,5.8,4.286,4.286,0,0,1-1.961-.535V54.1a4.36,4.36,0,0,0,3.477,4.264,4.331,4.331,0,0,1-1.138.143,3.837,3.837,0,0,1-.822-.074,4.381,4.381,0,0,0,4.055,3.023,8.72,8.72,0,0,1-5.381,1.851A8.128,8.128,0,0,1,0,63.252,12.218,12.218,0,0,0,6.657,65.2,12.267,12.267,0,0,0,19.009,52.85c0-.192-.007-.377-.016-.561A8.658,8.658,0,0,0,21.169,50.036Z" transform="translate(276 8392)"/><g class="b" transform="translate(268 8430)"><circle class="c" cx="19" cy="19" r="19"/><circle class="d" cx="19" cy="19" r="18.5"/></g></g><g transform="translate(8)"><g transform="translate(328 8430.442)"><path class="a" d="M16.968,20.1v6.654H13.331V20.548c0-1.56-.526-2.624-1.842-2.624a2.006,2.006,0,0,0-1.866,1.411,2.789,2.789,0,0,0-.121.941v6.481H5.864s.049-10.515,0-11.6H9.5V16.8c-.007.012-.017.026-.024.037H9.5V16.8a3.586,3.586,0,0,1,3.278-1.918C15.173,14.879,16.968,16.538,16.968,20.1ZM2.059,9.558a1.949,1.949,0,0,0-2.059,2,1.938,1.938,0,0,0,2.01,2.006h.024a1.95,1.95,0,0,0,2.058-2.006A1.942,1.942,0,0,0,2.059,9.558ZM.216,26.757H3.853v-11.6H.216Z" transform="translate(0)"/></g><g class="b" transform="translate(317 8430)"><circle class="c" cx="19" cy="19" r="19"/><circle class="d" cx="19" cy="19" r="18.5"/></g></g><g transform="translate(361.819 8440)"><path class="a" d="M45.527,1.762A7.116,7.116,0,0,0,40.686,0a7.805,7.805,0,0,0-5.613,2.062,5.956,5.956,0,0,0-1.892,4.224,3.933,3.933,0,0,0,2.248,3.931.776.776,0,0,0,.283.055.622.622,0,0,0,.614-.482c.048-.17.158-.591.205-.773a.7.7,0,0,0-.2-.784,2.426,2.426,0,0,1-.6-1.708A4.409,4.409,0,0,1,40.408,2.2c2.411,0,3.908,1.306,3.908,3.407a6.811,6.811,0,0,1-.844,3.459,2.494,2.494,0,0,1-2.065,1.377,1.4,1.4,0,0,1-1.089-.474A1.15,1.15,0,0,1,40.1,8.929c.107-.433.254-.886.4-1.323A7.858,7.858,0,0,0,41,5.452a1.6,1.6,0,0,0-1.652-1.72A2.517,2.517,0,0,0,37.106,6.5a3.948,3.948,0,0,0,.308,1.548c-.158.639-1.1,4.435-1.277,5.151-.1.418-.724,3.719.3,3.982,1.155.3,2.187-2.919,2.293-3.282.085-.3.383-1.413.566-2.1a3.589,3.589,0,0,0,2.329.858,5.285,5.285,0,0,0,4.17-1.988,7.725,7.725,0,0,0,1.568-4.88A5.507,5.507,0,0,0,45.527,1.762Z" transform="translate(0 0)"/></g><g class="b" transform="translate(383 8430)"><circle class="c" cx="19" cy="19" r="19"/><circle class="d" cx="19" cy="19" r="18.5"/></g></g></svg>