<svg xmlns="http://www.w3.org/2000/svg" xmlns:xlink="http://www.w3.org/1999/xlink" width="243.28" height="61.519" viewBox="0 0 243.28 61.519"><defs><style>.a{fill:#28969f;}.b{fill:#33b0ba;}.c{fill:url(#a);}.d{fill:url(#b);}.e{fill:url(#c);}.f{fill:url(#d);}.g{fill:url(#e);}.h{fill:url(#n);}.i{fill:url(#o);}.j{fill:#0d2531;}.k{fill:url(#p);}.l{fill:url(#s);}</style><linearGradient id="a" x1="0.052" y1="0.147" x2="0.97" y2="1" gradientUnits="objectBoundingBox"><stop offset="0" stop-color="#2a95ca"/><stop offset="1" stop-color="#33b0ba"/></linearGradient><linearGradient id="b" x1="0.5" x2="0.5" y2="0.816" gradientUnits="objectBoundingBox"><stop offset="0" stop-color="#1a80d1"/><stop offset="1" stop-color="#33b0ba"/></linearGradient><linearGradient id="c" x1="0.5" x2="0.5" y2="0.641" gradientUnits="objectBoundingBox"><stop offset="0" stop-color="#1d87ce"/><stop offset="1" stop-color="#33b0ba"/></linearGradient><linearGradient id="d" x1="0.5" x2="0.428" y2="0.938" gradientUnits="objectBoundingBox"><stop offset="0" stop-color="#2190c9"/><stop offset="1" stop-color="#33b0ba"/></linearGradient><linearGradient id="e" x1="0.5" x2="0.5" y2="1.022" gradientUnits="objectBoundingBox"><stop offset="0" stop-color="#ba4d33"/><stop offset="1" stop-color="#ffd839"/></linearGradient><linearGradient id="n" x1="0.5" y1="-1.956" x2="0.5" y2="1" gradientUnits="objectBoundingBox"><stop offset="0" stop-color="#ffd839"/><stop offset="1" stop-color="#ba4d33"/></linearGradient><linearGradient id="o" x1="1" y1="0.5" x2="0" y2="0.5" xlink:href="#e"/><linearGradient id="p" x2="0.5" y2="0.816" xlink:href="#e"/><linearGradient id="s" x1="0.962" y1="0.5" x2="0.038" y2="0.5" xlink:href="#e"/></defs><g transform="translate(-5031 549)"><rect class="a" width="13.269" height="61.519" rx="6.634" transform="translate(5031 -549)"/><rect class="b" width="9.65" height="18.094" rx="4.825" transform="translate(5056.331 -505.575)"/><rect class="b" width="34.981" height="9.65" rx="4.825" transform="translate(5031 -497.131)"/><path class="c" d="M16.424-199.981a5.447,5.447,0,0,0,2.261,4.449,8.322,8.322,0,0,0,5.3,1.779,10.871,10.871,0,0,0,7.674-3.188,9.985,9.985,0,0,0,3.374-7.489q-3.188-2.521-8.9-2.521a11.558,11.558,0,0,0-6.933,2A5.946,5.946,0,0,0,16.424-199.981Zm8.823-26.4q7.563,0,11.937,4.041t4.375,11.085v22.392H35.034V-193.9h-.3q-4.226,6.228-11.27,6.228a14.651,14.651,0,0,1-10.047-3.559,11.366,11.366,0,0,1-4.041-8.9,10.8,10.8,0,0,1,4.263-8.972q4.263-3.337,11.381-3.337a20.139,20.139,0,0,1,10.01,2.224v-1.557a7.764,7.764,0,0,0-2.817-6.043,9.663,9.663,0,0,0-6.6-2.484,10.454,10.454,0,0,0-9.046,4.819l-6.006-3.781Q15.534-226.376,25.247-226.376Zm43.226,38.7a15.667,15.667,0,0,1-7.3-1.705,12.779,12.779,0,0,1-5.079-4.523h-.3v5.042H49.27v-53.088h6.821v16.757l-.3,5.042h.3a12.778,12.778,0,0,1,5.079-4.523,15.666,15.666,0,0,1,7.3-1.705,15.6,15.6,0,0,1,12.16,5.635,19.844,19.844,0,0,1,5.116,13.717,19.673,19.673,0,0,1-5.116,13.717A15.6,15.6,0,0,1,68.473-187.673ZM67.361-193.9a10.637,10.637,0,0,0,8.23-3.707,13.375,13.375,0,0,0,3.337-9.416,13.544,13.544,0,0,0-3.337-9.416,10.637,10.637,0,0,0-8.23-3.707,10.716,10.716,0,0,0-8.3,3.707,13.73,13.73,0,0,0-3.262,9.416,13.837,13.837,0,0,0,3.262,9.491A10.813,10.813,0,0,0,67.361-193.9Zm82.375-43.82a4.646,4.646,0,0,1-1.409,3.411,4.645,4.645,0,0,1-3.411,1.409,4.645,4.645,0,0,1-3.411-1.409,4.645,4.645,0,0,1-1.409-3.411,4.645,4.645,0,0,1,1.409-3.411,4.645,4.645,0,0,1,3.411-1.409,4.646,4.646,0,0,1,3.411,1.409A4.645,4.645,0,0,1,149.736-237.721Zm-1.409,12.53v36.331h-6.821V-225.19Zm15.719,36.331h-6.821V-225.19h6.525v5.932h.3a9.846,9.846,0,0,1,4.263-4.931,11.832,11.832,0,0,1,6.339-2.039,12.781,12.781,0,0,1,5.042.89l-2.076,6.6a11.3,11.3,0,0,0-4-.519,8.829,8.829,0,0,0-6.71,3.114,10.415,10.415,0,0,0-2.855,7.266Zm34.181,1.186a17.378,17.378,0,0,1-13.2-5.487,19.374,19.374,0,0,1-5.19-13.865,19.734,19.734,0,0,1,5.042-13.828,16.687,16.687,0,0,1,12.9-5.524q8.082,0,12.864,5.227t4.782,14.644l-.074.741H186.808a11.838,11.838,0,0,0,3.559,8.6,11.386,11.386,0,0,0,8.156,3.262q6.525,0,10.232-6.525l6.08,2.966a18.122,18.122,0,0,1-6.784,7.192A18.762,18.762,0,0,1,198.227-187.673Zm-10.9-23.726h20.835a9.046,9.046,0,0,0-3.077-6.265,10.771,10.771,0,0,0-7.452-2.484A9.888,9.888,0,0,0,191-217.776,11.332,11.332,0,0,0,187.327-211.4Z" transform="translate(5058.852 -302.668)"/><g transform="translate(5150.339 -549)"><rect class="d" width="10.856" height="24.125" rx="5.428" transform="translate(0.08 37.394)"/><rect class="e" width="12.063" height="34.981" rx="6.031" transform="translate(14.555 26.538)"/><rect class="f" width="10.856" height="61.519" rx="5.428" transform="translate(30.236)"/><path class="b" d="M3.257,0H38.235a3.167,3.167,0,0,1,3.257,3.069v3.2A3.167,3.167,0,0,1,38.235,9.34H3.257A3.167,3.167,0,0,1,0,6.271v-3.2A3.167,3.167,0,0,1,3.257,0Z" transform="translate(0 51.895)"/></g><rect class="g" width="13.269" height="61.519" rx="6.634" transform="translate(5031 -549)"/><rect class="b" width="9.65" height="18.094" rx="4.825" transform="translate(5056.331 -505.575)"/><rect class="b" width="34.981" height="9.65" rx="4.825" transform="translate(5031 -497.131)"/><path class="c" d="M16.424-199.981a5.447,5.447,0,0,0,2.261,4.449,8.322,8.322,0,0,0,5.3,1.779,10.871,10.871,0,0,0,7.674-3.188,9.985,9.985,0,0,0,3.374-7.489q-3.188-2.521-8.9-2.521a11.558,11.558,0,0,0-6.933,2A5.946,5.946,0,0,0,16.424-199.981Zm8.823-26.4q7.563,0,11.937,4.041t4.375,11.085v22.392H35.034V-193.9h-.3q-4.226,6.228-11.27,6.228a14.651,14.651,0,0,1-10.047-3.559,11.366,11.366,0,0,1-4.041-8.9,10.8,10.8,0,0,1,4.263-8.972q4.263-3.337,11.381-3.337a20.139,20.139,0,0,1,10.01,2.224v-1.557a7.764,7.764,0,0,0-2.817-6.043,9.663,9.663,0,0,0-6.6-2.484,10.454,10.454,0,0,0-9.046,4.819l-6.006-3.781Q15.534-226.376,25.247-226.376Zm43.226,38.7a15.667,15.667,0,0,1-7.3-1.705,12.779,12.779,0,0,1-5.079-4.523h-.3v5.042H49.27v-53.088h6.821v16.757l-.3,5.042h.3a12.778,12.778,0,0,1,5.079-4.523,15.666,15.666,0,0,1,7.3-1.705,15.6,15.6,0,0,1,12.16,5.635,19.844,19.844,0,0,1,5.116,13.717,19.673,19.673,0,0,1-5.116,13.717A15.6,15.6,0,0,1,68.473-187.673ZM67.361-193.9a10.637,10.637,0,0,0,8.23-3.707,13.375,13.375,0,0,0,3.337-9.416,13.544,13.544,0,0,0-3.337-9.416,10.637,10.637,0,0,0-8.23-3.707,10.716,10.716,0,0,0-8.3,3.707,13.73,13.73,0,0,0-3.262,9.416,13.837,13.837,0,0,0,3.262,9.491A10.813,10.813,0,0,0,67.361-193.9Zm82.375-43.82a4.646,4.646,0,0,1-1.409,3.411,4.645,4.645,0,0,1-3.411,1.409,4.645,4.645,0,0,1-3.411-1.409,4.645,4.645,0,0,1-1.409-3.411,4.645,4.645,0,0,1,1.409-3.411,4.645,4.645,0,0,1,3.411-1.409,4.646,4.646,0,0,1,3.411,1.409A4.645,4.645,0,0,1,149.736-237.721Zm-1.409,12.53v36.331h-6.821V-225.19Zm15.719,36.331h-6.821V-225.19h6.525v5.932h.3a9.846,9.846,0,0,1,4.263-4.931,11.832,11.832,0,0,1,6.339-2.039,12.781,12.781,0,0,1,5.042.89l-2.076,6.6a11.3,11.3,0,0,0-4-.519,8.829,8.829,0,0,0-6.71,3.114,10.415,10.415,0,0,0-2.855,7.266Zm34.181,1.186a17.378,17.378,0,0,1-13.2-5.487,19.374,19.374,0,0,1-5.19-13.865,19.734,19.734,0,0,1,5.042-13.828,16.687,16.687,0,0,1,12.9-5.524q8.082,0,12.864,5.227t4.782,14.644l-.074.741H186.808a11.838,11.838,0,0,0,3.559,8.6,11.386,11.386,0,0,0,8.156,3.262q6.525,0,10.232-6.525l6.08,2.966a18.122,18.122,0,0,1-6.784,7.192A18.762,18.762,0,0,1,198.227-187.673Zm-10.9-23.726h20.835a9.046,9.046,0,0,0-3.077-6.265,10.771,10.771,0,0,0-7.452-2.484A9.888,9.888,0,0,0,191-217.776,11.332,11.332,0,0,0,187.327-211.4Z" transform="translate(5058.852 -302.668)"/><g transform="translate(5150.339 -549)"><rect class="d" width="10.856" height="24.125" rx="5.428" transform="translate(0.08 37.394)"/><rect class="e" width="12.063" height="34.981" rx="6.031" transform="translate(14.555 26.538)"/><rect class="f" width="10.856" height="61.519" rx="5.428" transform="translate(30.236)"/><path class="b" d="M3.257,0H38.235a3.167,3.167,0,0,1,3.257,3.069v3.2A3.167,3.167,0,0,1,38.235,9.34H3.257A3.167,3.167,0,0,1,0,6.271v-3.2A3.167,3.167,0,0,1,3.257,0Z" transform="translate(0 51.895)"/></g><rect class="b" width="9.65" height="18.094" rx="4.825" transform="translate(5056.331 -505.575)"/><rect class="b" width="34.981" height="9.65" rx="4.825" transform="translate(5031 -497.131)"/><path class="c" d="M16.424-199.981a5.447,5.447,0,0,0,2.261,4.449,8.322,8.322,0,0,0,5.3,1.779,10.871,10.871,0,0,0,7.674-3.188,9.985,9.985,0,0,0,3.374-7.489q-3.188-2.521-8.9-2.521a11.558,11.558,0,0,0-6.933,2A5.946,5.946,0,0,0,16.424-199.981Zm8.823-26.4q7.563,0,11.937,4.041t4.375,11.085v22.392H35.034V-193.9h-.3q-4.226,6.228-11.27,6.228a14.651,14.651,0,0,1-10.047-3.559,11.366,11.366,0,0,1-4.041-8.9,10.8,10.8,0,0,1,4.263-8.972q4.263-3.337,11.381-3.337a20.139,20.139,0,0,1,10.01,2.224v-1.557a7.764,7.764,0,0,0-2.817-6.043,9.663,9.663,0,0,0-6.6-2.484,10.454,10.454,0,0,0-9.046,4.819l-6.006-3.781Q15.534-226.376,25.247-226.376Zm43.226,38.7a15.667,15.667,0,0,1-7.3-1.705,12.779,12.779,0,0,1-5.079-4.523h-.3v5.042H49.27v-53.088h6.821v16.757l-.3,5.042h.3a12.778,12.778,0,0,1,5.079-4.523,15.666,15.666,0,0,1,7.3-1.705,15.6,15.6,0,0,1,12.16,5.635,19.844,19.844,0,0,1,5.116,13.717,19.673,19.673,0,0,1-5.116,13.717A15.6,15.6,0,0,1,68.473-187.673ZM67.361-193.9a10.637,10.637,0,0,0,8.23-3.707,13.375,13.375,0,0,0,3.337-9.416,13.544,13.544,0,0,0-3.337-9.416,10.637,10.637,0,0,0-8.23-3.707,10.716,10.716,0,0,0-8.3,3.707,13.73,13.73,0,0,0-3.262,9.416,13.837,13.837,0,0,0,3.262,9.491A10.813,10.813,0,0,0,67.361-193.9Zm82.375-43.82a4.646,4.646,0,0,1-1.409,3.411,4.645,4.645,0,0,1-3.411,1.409,4.645,4.645,0,0,1-3.411-1.409,4.645,4.645,0,0,1-1.409-3.411,4.645,4.645,0,0,1,1.409-3.411,4.645,4.645,0,0,1,3.411-1.409,4.646,4.646,0,0,1,3.411,1.409A4.645,4.645,0,0,1,149.736-237.721Zm-1.409,12.53v36.331h-6.821V-225.19Zm15.719,36.331h-6.821V-225.19h6.525v5.932h.3a9.846,9.846,0,0,1,4.263-4.931,11.832,11.832,0,0,1,6.339-2.039,12.781,12.781,0,0,1,5.042.89l-2.076,6.6a11.3,11.3,0,0,0-4-.519,8.829,8.829,0,0,0-6.71,3.114,10.415,10.415,0,0,0-2.855,7.266Zm34.181,1.186a17.378,17.378,0,0,1-13.2-5.487,19.374,19.374,0,0,1-5.19-13.865,19.734,19.734,0,0,1,5.042-13.828,16.687,16.687,0,0,1,12.9-5.524q8.082,0,12.864,5.227t4.782,14.644l-.074.741H186.808a11.838,11.838,0,0,0,3.559,8.6,11.386,11.386,0,0,0,8.156,3.262q6.525,0,10.232-6.525l6.08,2.966a18.122,18.122,0,0,1-6.784,7.192A18.762,18.762,0,0,1,198.227-187.673Zm-10.9-23.726h20.835a9.046,9.046,0,0,0-3.077-6.265,10.771,10.771,0,0,0-7.452-2.484A9.888,9.888,0,0,0,191-217.776,11.332,11.332,0,0,0,187.327-211.4Z" transform="translate(5058.852 -302.668)"/><g transform="translate(5150.339 -549)"><rect class="d" width="10.856" height="24.125" rx="5.428" transform="translate(0.08 37.394)"/><rect class="e" width="12.063" height="34.981" rx="6.031" transform="translate(14.555 26.538)"/><rect class="f" width="10.856" height="61.519" rx="5.428" transform="translate(30.236)"/><path class="b" d="M3.257,0H38.235a3.167,3.167,0,0,1,3.257,3.069v3.2A3.167,3.167,0,0,1,38.235,9.34H3.257A3.167,3.167,0,0,1,0,6.271v-3.2A3.167,3.167,0,0,1,3.257,0Z" transform="translate(0 51.895)"/></g><rect class="h" width="9.65" height="18.094" rx="4.825" transform="translate(5056.331 -505.575)"/><rect class="i" width="34.981" height="9.65" rx="4.825" transform="translate(5031 -497.131)"/><path class="j" d="M16.424-199.981a5.447,5.447,0,0,0,2.261,4.449,8.322,8.322,0,0,0,5.3,1.779,10.871,10.871,0,0,0,7.674-3.188,9.985,9.985,0,0,0,3.374-7.489q-3.188-2.521-8.9-2.521a11.558,11.558,0,0,0-6.933,2A5.946,5.946,0,0,0,16.424-199.981Zm8.823-26.4q7.563,0,11.937,4.041t4.375,11.085v22.392H35.034V-193.9h-.3q-4.226,6.228-11.27,6.228a14.651,14.651,0,0,1-10.047-3.559,11.366,11.366,0,0,1-4.041-8.9,10.8,10.8,0,0,1,4.263-8.972q4.263-3.337,11.381-3.337a20.139,20.139,0,0,1,10.01,2.224v-1.557a7.764,7.764,0,0,0-2.817-6.043,9.663,9.663,0,0,0-6.6-2.484,10.454,10.454,0,0,0-9.046,4.819l-6.006-3.781Q15.534-226.376,25.247-226.376Zm43.226,38.7a15.667,15.667,0,0,1-7.3-1.705,12.779,12.779,0,0,1-5.079-4.523h-.3v5.042H49.27v-53.088h6.821v16.757l-.3,5.042h.3a12.778,12.778,0,0,1,5.079-4.523,15.666,15.666,0,0,1,7.3-1.705,15.6,15.6,0,0,1,12.16,5.635,19.844,19.844,0,0,1,5.116,13.717,19.673,19.673,0,0,1-5.116,13.717A15.6,15.6,0,0,1,68.473-187.673ZM67.361-193.9a10.637,10.637,0,0,0,8.23-3.707,13.375,13.375,0,0,0,3.337-9.416,13.544,13.544,0,0,0-3.337-9.416,10.637,10.637,0,0,0-8.23-3.707,10.716,10.716,0,0,0-8.3,3.707,13.73,13.73,0,0,0-3.262,9.416,13.837,13.837,0,0,0,3.262,9.491A10.813,10.813,0,0,0,67.361-193.9Zm82.375-43.82a4.646,4.646,0,0,1-1.409,3.411,4.645,4.645,0,0,1-3.411,1.409,4.645,4.645,0,0,1-3.411-1.409,4.645,4.645,0,0,1-1.409-3.411,4.645,4.645,0,0,1,1.409-3.411,4.645,4.645,0,0,1,3.411-1.409,4.646,4.646,0,0,1,3.411,1.409A4.645,4.645,0,0,1,149.736-237.721Zm-1.409,12.53v36.331h-6.821V-225.19Zm15.719,36.331h-6.821V-225.19h6.525v5.932h.3a9.846,9.846,0,0,1,4.263-4.931,11.832,11.832,0,0,1,6.339-2.039,12.781,12.781,0,0,1,5.042.89l-2.076,6.6a11.3,11.3,0,0,0-4-.519,8.829,8.829,0,0,0-6.71,3.114,10.415,10.415,0,0,0-2.855,7.266Zm34.181,1.186a17.378,17.378,0,0,1-13.2-5.487,19.374,19.374,0,0,1-5.19-13.865,19.734,19.734,0,0,1,5.042-13.828,16.687,16.687,0,0,1,12.9-5.524q8.082,0,12.864,5.227t4.782,14.644l-.074.741H186.808s1.285,6.426,3.559,8.6a11.386,11.386,0,0,0,8.156,3.262q6.525,0,10.232-6.525l6.08,2.966a18.122,18.122,0,0,1-6.784,7.192A18.762,18.762,0,0,1,198.227-187.673Zm-10.9-23.726h20.835a9.046,9.046,0,0,0-3.077-6.265,10.771,10.771,0,0,0-7.452-2.484A9.888,9.888,0,0,0,191-217.776,11.332,11.332,0,0,0,187.327-211.4Z" transform="translate(5058.852 -302.668)"/><g transform="translate(5150.339 -549)"><rect class="k" width="10.856" height="24.125" rx="5.428" transform="translate(0.08 37.394)"/><rect class="k" width="12.063" height="34.981" rx="6.031" transform="translate(14.555 26.538)"/><rect class="k" width="10.856" height="61.519" rx="5.428" transform="translate(30.236)"/><path class="l" d="M3.257,0H38.235a3.167,3.167,0,0,1,3.257,3.069v3.2A3.167,3.167,0,0,1,38.235,9.34H3.257A3.167,3.167,0,0,1,0,6.271v-3.2A3.167,3.167,0,0,1,3.257,0Z" transform="translate(0 51.895)"/></g></g></svg>