<svg xmlns="http://www.w3.org/2000/svg" xmlns:xlink="http://www.w3.org/1999/xlink" width="290.66" height="73.5" viewBox="0 0 290.66 73.5"><defs><style>.a{fill:#28969f;}.b{fill:#33b0ba;}.c{fill:url(#a);}.d{fill:url(#b);}.e{fill:url(#c);}.f{fill:url(#d);}.g{fill:url(#e);}.h{fill:url(#n);}.i{fill:url(#o);}.j{fill:#0d2531;}.k{fill:url(#p);}.l{fill:url(#s);}</style><linearGradient id="a" x1="0.052" y1="0.147" x2="0.97" y2="1" gradientUnits="objectBoundingBox"><stop offset="0" stop-color="#2a95ca"/><stop offset="1" stop-color="#33b0ba"/></linearGradient><linearGradient id="b" x1="0.5" x2="0.5" y2="0.816" gradientUnits="objectBoundingBox"><stop offset="0" stop-color="#1a80d1"/><stop offset="1" stop-color="#33b0ba"/></linearGradient><linearGradient id="c" x1="0.5" x2="0.5" y2="0.641" gradientUnits="objectBoundingBox"><stop offset="0" stop-color="#1d87ce"/><stop offset="1" stop-color="#33b0ba"/></linearGradient><linearGradient id="d" x1="0.5" x2="0.428" y2="0.938" gradientUnits="objectBoundingBox"><stop offset="0" stop-color="#2190c9"/><stop offset="1" stop-color="#33b0ba"/></linearGradient><linearGradient id="e" x1="0.5" x2="0.5" y2="1.022" gradientUnits="objectBoundingBox"><stop offset="0" stop-color="#ba4d33"/><stop offset="1" stop-color="#ffd839"/></linearGradient><linearGradient id="n" x1="0.5" y1="-1.956" x2="0.5" y2="1" gradientUnits="objectBoundingBox"><stop offset="0" stop-color="#ffd839"/><stop offset="1" stop-color="#ba4d33"/></linearGradient><linearGradient id="o" x1="1" y1="0.5" x2="0" y2="0.5" xlink:href="#e"/><linearGradient id="p" x2="0.5" y2="0.816" xlink:href="#e"/><linearGradient id="s" x1="0.962" y1="0.5" x2="0.038" y2="0.5" xlink:href="#e"/></defs><g transform="translate(-5031 549)"><rect class="a" width="15.853" height="73.5" rx="7.926" transform="translate(5031 -549)"/><rect class="b" width="11.529" height="21.618" rx="5.765" transform="translate(5061.265 -497.118)"/><rect class="b" width="41.794" height="11.529" rx="5.765" transform="translate(5031 -487.029)"/><path class="c" d="M17.8-191.692a6.508,6.508,0,0,0,2.7,5.315,9.942,9.942,0,0,0,6.334,2.126A12.988,12.988,0,0,0,36-188.06a11.93,11.93,0,0,0,4.031-8.947q-3.809-3.012-10.63-3.012a13.809,13.809,0,0,0-8.283,2.392A7.1,7.1,0,0,0,17.8-191.692Zm10.542-31.536q9.036,0,14.262,4.828t5.227,13.243V-178.4h-7.8v-6.024h-.354q-5.049,7.441-13.465,7.441a17.5,17.5,0,0,1-12-4.252,13.58,13.58,0,0,1-4.828-10.63,12.905,12.905,0,0,1,5.094-10.719q5.094-3.986,13.6-3.986,7.264,0,11.959,2.658v-1.86A9.276,9.276,0,0,0,36.664-213a11.545,11.545,0,0,0-7.884-2.968,12.489,12.489,0,0,0-10.807,5.758L10.8-214.724Q16.733-223.228,28.337-223.228Zm51.645,46.241a18.718,18.718,0,0,1-8.726-2.037,15.267,15.267,0,0,1-6.068-5.4h-.354v6.024h-7.8v-63.427h8.15v20.02l-.354,6.024h.354a15.267,15.267,0,0,1,6.068-5.4,18.718,18.718,0,0,1,8.726-2.037A18.641,18.641,0,0,1,94.51-216.5a23.709,23.709,0,0,1,6.112,16.388A23.5,23.5,0,0,1,94.51-183.72,18.641,18.641,0,0,1,79.982-176.987Zm-1.329-7.441a12.709,12.709,0,0,0,9.833-4.429,15.98,15.98,0,0,0,3.986-11.25,16.181,16.181,0,0,0-3.986-11.25,12.709,12.709,0,0,0-9.833-4.429,12.8,12.8,0,0,0-9.922,4.429,16.4,16.4,0,0,0-3.9,11.25,16.532,16.532,0,0,0,3.9,11.339A12.919,12.919,0,0,0,78.653-184.428Zm98.418-52.354a5.55,5.55,0,0,1-1.683,4.075,5.55,5.55,0,0,1-4.075,1.683,5.55,5.55,0,0,1-4.075-1.683,5.55,5.55,0,0,1-1.683-4.075,5.55,5.55,0,0,1,1.683-4.075,5.55,5.55,0,0,1,4.075-1.683,5.55,5.55,0,0,1,4.075,1.683A5.55,5.55,0,0,1,177.071-236.782Zm-1.683,14.971V-178.4h-8.15v-43.407Zm18.78,43.407h-8.15v-43.407h7.8v7.087h.354a11.764,11.764,0,0,1,5.094-5.891,14.136,14.136,0,0,1,7.574-2.436,15.27,15.27,0,0,1,6.024,1.063l-2.48,7.884a13.5,13.5,0,0,0-4.784-.62A10.549,10.549,0,0,0,197.578-211a12.443,12.443,0,0,0-3.41,8.681Zm40.838,1.417a20.763,20.763,0,0,1-15.768-6.555q-6.2-6.555-6.2-16.565,0-9.921,6.024-16.521a19.937,19.937,0,0,1,15.414-6.6q9.656,0,15.369,6.245t5.714,17.5l-.089.886H221.363a14.143,14.143,0,0,0,4.252,10.276,13.6,13.6,0,0,0,9.744,3.9q7.8,0,12.225-7.8l7.264,3.543a21.652,21.652,0,0,1-8.106,8.593A22.416,22.416,0,0,1,235.006-176.987Zm-13.022-28.347h24.892a10.807,10.807,0,0,0-3.676-7.485q-3.322-2.968-8.9-2.968a11.814,11.814,0,0,0-7.928,2.835A13.539,13.539,0,0,0,221.984-205.334Z" transform="translate(5066.103 -301.929)"/><g transform="translate(5173.581 -549)"><rect class="d" width="12.971" height="28.824" rx="6.485" transform="translate(0.096 44.676)"/><rect class="e" width="14.412" height="41.794" rx="7.206" transform="translate(17.39 31.706)"/><rect class="f" width="12.971" height="73.5" rx="6.485" transform="translate(36.125)"/><path class="b" d="M3.891,0h41.79a3.784,3.784,0,0,1,3.891,3.667V7.493a3.784,3.784,0,0,1-3.891,3.667H3.891A3.784,3.784,0,0,1,0,7.493V3.667A3.784,3.784,0,0,1,3.891,0Z" transform="translate(0 62.002)"/></g><rect class="g" width="15.853" height="73.5" rx="7.926" transform="translate(5031 -549)"/><rect class="b" width="11.529" height="21.618" rx="5.765" transform="translate(5061.265 -497.118)"/><rect class="b" width="41.794" height="11.529" rx="5.765" transform="translate(5031 -487.029)"/><path class="c" d="M17.8-191.692a6.508,6.508,0,0,0,2.7,5.315,9.942,9.942,0,0,0,6.334,2.126A12.988,12.988,0,0,0,36-188.06a11.93,11.93,0,0,0,4.031-8.947q-3.809-3.012-10.63-3.012a13.809,13.809,0,0,0-8.283,2.392A7.1,7.1,0,0,0,17.8-191.692Zm10.542-31.536q9.036,0,14.262,4.828t5.227,13.243V-178.4h-7.8v-6.024h-.354q-5.049,7.441-13.465,7.441a17.5,17.5,0,0,1-12-4.252,13.58,13.58,0,0,1-4.828-10.63,12.905,12.905,0,0,1,5.094-10.719q5.094-3.986,13.6-3.986,7.264,0,11.959,2.658v-1.86A9.276,9.276,0,0,0,36.664-213a11.545,11.545,0,0,0-7.884-2.968,12.489,12.489,0,0,0-10.807,5.758L10.8-214.724Q16.733-223.228,28.337-223.228Zm51.645,46.241a18.718,18.718,0,0,1-8.726-2.037,15.267,15.267,0,0,1-6.068-5.4h-.354v6.024h-7.8v-63.427h8.15v20.02l-.354,6.024h.354a15.267,15.267,0,0,1,6.068-5.4,18.718,18.718,0,0,1,8.726-2.037A18.641,18.641,0,0,1,94.51-216.5a23.709,23.709,0,0,1,6.112,16.388A23.5,23.5,0,0,1,94.51-183.72,18.641,18.641,0,0,1,79.982-176.987Zm-1.329-7.441a12.709,12.709,0,0,0,9.833-4.429,15.98,15.98,0,0,0,3.986-11.25,16.181,16.181,0,0,0-3.986-11.25,12.709,12.709,0,0,0-9.833-4.429,12.8,12.8,0,0,0-9.922,4.429,16.4,16.4,0,0,0-3.9,11.25,16.532,16.532,0,0,0,3.9,11.339A12.919,12.919,0,0,0,78.653-184.428Zm98.418-52.354a5.55,5.55,0,0,1-1.683,4.075,5.55,5.55,0,0,1-4.075,1.683,5.55,5.55,0,0,1-4.075-1.683,5.55,5.55,0,0,1-1.683-4.075,5.55,5.55,0,0,1,1.683-4.075,5.55,5.55,0,0,1,4.075-1.683,5.55,5.55,0,0,1,4.075,1.683A5.55,5.55,0,0,1,177.071-236.782Zm-1.683,14.971V-178.4h-8.15v-43.407Zm18.78,43.407h-8.15v-43.407h7.8v7.087h.354a11.764,11.764,0,0,1,5.094-5.891,14.136,14.136,0,0,1,7.574-2.436,15.27,15.27,0,0,1,6.024,1.063l-2.48,7.884a13.5,13.5,0,0,0-4.784-.62A10.549,10.549,0,0,0,197.578-211a12.443,12.443,0,0,0-3.41,8.681Zm40.838,1.417a20.763,20.763,0,0,1-15.768-6.555q-6.2-6.555-6.2-16.565,0-9.921,6.024-16.521a19.937,19.937,0,0,1,15.414-6.6q9.656,0,15.369,6.245t5.714,17.5l-.089.886H221.363a14.143,14.143,0,0,0,4.252,10.276,13.6,13.6,0,0,0,9.744,3.9q7.8,0,12.225-7.8l7.264,3.543a21.652,21.652,0,0,1-8.106,8.593A22.416,22.416,0,0,1,235.006-176.987Zm-13.022-28.347h24.892a10.807,10.807,0,0,0-3.676-7.485q-3.322-2.968-8.9-2.968a11.814,11.814,0,0,0-7.928,2.835A13.539,13.539,0,0,0,221.984-205.334Z" transform="translate(5066.103 -301.929)"/><g transform="translate(5173.581 -549)"><rect class="d" width="12.971" height="28.824" rx="6.485" transform="translate(0.096 44.676)"/><rect class="e" width="14.412" height="41.794" rx="7.206" transform="translate(17.39 31.706)"/><rect class="f" width="12.971" height="73.5" rx="6.485" transform="translate(36.125)"/><path class="b" d="M3.891,0h41.79a3.784,3.784,0,0,1,3.891,3.667V7.493a3.784,3.784,0,0,1-3.891,3.667H3.891A3.784,3.784,0,0,1,0,7.493V3.667A3.784,3.784,0,0,1,3.891,0Z" transform="translate(0 62.002)"/></g><rect class="b" width="11.529" height="21.618" rx="5.765" transform="translate(5061.265 -497.118)"/><rect class="b" width="41.794" height="11.529" rx="5.765" transform="translate(5031 -487.029)"/><path class="c" d="M17.8-191.692a6.508,6.508,0,0,0,2.7,5.315,9.942,9.942,0,0,0,6.334,2.126A12.988,12.988,0,0,0,36-188.06a11.93,11.93,0,0,0,4.031-8.947q-3.809-3.012-10.63-3.012a13.809,13.809,0,0,0-8.283,2.392A7.1,7.1,0,0,0,17.8-191.692Zm10.542-31.536q9.036,0,14.262,4.828t5.227,13.243V-178.4h-7.8v-6.024h-.354q-5.049,7.441-13.465,7.441a17.5,17.5,0,0,1-12-4.252,13.58,13.58,0,0,1-4.828-10.63,12.905,12.905,0,0,1,5.094-10.719q5.094-3.986,13.6-3.986,7.264,0,11.959,2.658v-1.86A9.276,9.276,0,0,0,36.664-213a11.545,11.545,0,0,0-7.884-2.968,12.489,12.489,0,0,0-10.807,5.758L10.8-214.724Q16.733-223.228,28.337-223.228Zm51.645,46.241a18.718,18.718,0,0,1-8.726-2.037,15.267,15.267,0,0,1-6.068-5.4h-.354v6.024h-7.8v-63.427h8.15v20.02l-.354,6.024h.354a15.267,15.267,0,0,1,6.068-5.4,18.718,18.718,0,0,1,8.726-2.037A18.641,18.641,0,0,1,94.51-216.5a23.709,23.709,0,0,1,6.112,16.388A23.5,23.5,0,0,1,94.51-183.72,18.641,18.641,0,0,1,79.982-176.987Zm-1.329-7.441a12.709,12.709,0,0,0,9.833-4.429,15.98,15.98,0,0,0,3.986-11.25,16.181,16.181,0,0,0-3.986-11.25,12.709,12.709,0,0,0-9.833-4.429,12.8,12.8,0,0,0-9.922,4.429,16.4,16.4,0,0,0-3.9,11.25,16.532,16.532,0,0,0,3.9,11.339A12.919,12.919,0,0,0,78.653-184.428Zm98.418-52.354a5.55,5.55,0,0,1-1.683,4.075,5.55,5.55,0,0,1-4.075,1.683,5.55,5.55,0,0,1-4.075-1.683,5.55,5.55,0,0,1-1.683-4.075,5.55,5.55,0,0,1,1.683-4.075,5.55,5.55,0,0,1,4.075-1.683,5.55,5.55,0,0,1,4.075,1.683A5.55,5.55,0,0,1,177.071-236.782Zm-1.683,14.971V-178.4h-8.15v-43.407Zm18.78,43.407h-8.15v-43.407h7.8v7.087h.354a11.764,11.764,0,0,1,5.094-5.891,14.136,14.136,0,0,1,7.574-2.436,15.27,15.27,0,0,1,6.024,1.063l-2.48,7.884a13.5,13.5,0,0,0-4.784-.62A10.549,10.549,0,0,0,197.578-211a12.443,12.443,0,0,0-3.41,8.681Zm40.838,1.417a20.763,20.763,0,0,1-15.768-6.555q-6.2-6.555-6.2-16.565,0-9.921,6.024-16.521a19.937,19.937,0,0,1,15.414-6.6q9.656,0,15.369,6.245t5.714,17.5l-.089.886H221.363a14.143,14.143,0,0,0,4.252,10.276,13.6,13.6,0,0,0,9.744,3.9q7.8,0,12.225-7.8l7.264,3.543a21.652,21.652,0,0,1-8.106,8.593A22.416,22.416,0,0,1,235.006-176.987Zm-13.022-28.347h24.892a10.807,10.807,0,0,0-3.676-7.485q-3.322-2.968-8.9-2.968a11.814,11.814,0,0,0-7.928,2.835A13.539,13.539,0,0,0,221.984-205.334Z" transform="translate(5066.103 -301.929)"/><g transform="translate(5173.581 -549)"><rect class="d" width="12.971" height="28.824" rx="6.485" transform="translate(0.096 44.676)"/><rect class="e" width="14.412" height="41.794" rx="7.206" transform="translate(17.39 31.706)"/><rect class="f" width="12.971" height="73.5" rx="6.485" transform="translate(36.125)"/><path class="b" d="M3.891,0h41.79a3.784,3.784,0,0,1,3.891,3.667V7.493a3.784,3.784,0,0,1-3.891,3.667H3.891A3.784,3.784,0,0,1,0,7.493V3.667A3.784,3.784,0,0,1,3.891,0Z" transform="translate(0 62.002)"/></g><rect class="h" width="11.529" height="21.618" rx="5.765" transform="translate(5061.265 -497.118)"/><rect class="i" width="41.794" height="11.529" rx="5.765" transform="translate(5031 -487.029)"/><path class="j" d="M17.8-191.692a6.508,6.508,0,0,0,2.7,5.315,9.942,9.942,0,0,0,6.334,2.126A12.988,12.988,0,0,0,36-188.06a11.93,11.93,0,0,0,4.031-8.947q-3.809-3.012-10.63-3.012a13.809,13.809,0,0,0-8.283,2.392A7.1,7.1,0,0,0,17.8-191.692Zm10.542-31.536q9.036,0,14.262,4.828t5.227,13.243V-178.4h-7.8v-6.024h-.354q-5.049,7.441-13.465,7.441a17.5,17.5,0,0,1-12-4.252,13.58,13.58,0,0,1-4.828-10.63,12.905,12.905,0,0,1,5.094-10.719q5.094-3.986,13.6-3.986,7.264,0,11.959,2.658v-1.86A9.276,9.276,0,0,0,36.664-213a11.545,11.545,0,0,0-7.884-2.968,12.489,12.489,0,0,0-10.807,5.758L10.8-214.724Q16.733-223.228,28.337-223.228Zm51.645,46.241a18.718,18.718,0,0,1-8.726-2.037,15.267,15.267,0,0,1-6.068-5.4h-.354v6.024h-7.8v-63.427h8.15v20.02l-.354,6.024h.354a15.267,15.267,0,0,1,6.068-5.4,18.718,18.718,0,0,1,8.726-2.037A18.641,18.641,0,0,1,94.51-216.5a23.709,23.709,0,0,1,6.112,16.388A23.5,23.5,0,0,1,94.51-183.72,18.641,18.641,0,0,1,79.982-176.987Zm-1.329-7.441a12.709,12.709,0,0,0,9.833-4.429,15.98,15.98,0,0,0,3.986-11.25,16.181,16.181,0,0,0-3.986-11.25,12.709,12.709,0,0,0-9.833-4.429,12.8,12.8,0,0,0-9.922,4.429,16.4,16.4,0,0,0-3.9,11.25,16.532,16.532,0,0,0,3.9,11.339A12.919,12.919,0,0,0,78.653-184.428Zm98.418-52.354a5.55,5.55,0,0,1-1.683,4.075,5.55,5.55,0,0,1-4.075,1.683,5.55,5.55,0,0,1-4.075-1.683,5.55,5.55,0,0,1-1.683-4.075,5.55,5.55,0,0,1,1.683-4.075,5.55,5.55,0,0,1,4.075-1.683,5.55,5.55,0,0,1,4.075,1.683A5.55,5.55,0,0,1,177.071-236.782Zm-1.683,14.971V-178.4h-8.15v-43.407Zm18.78,43.407h-8.15v-43.407h7.8v7.087h.354a11.764,11.764,0,0,1,5.094-5.891,14.136,14.136,0,0,1,7.574-2.436,15.27,15.27,0,0,1,6.024,1.063l-2.48,7.884a13.5,13.5,0,0,0-4.784-.62A10.549,10.549,0,0,0,197.578-211a12.443,12.443,0,0,0-3.41,8.681Zm40.838,1.417a20.763,20.763,0,0,1-15.768-6.555q-6.2-6.555-6.2-16.565,0-9.921,6.024-16.521a19.937,19.937,0,0,1,15.414-6.6q9.656,0,15.369,6.245t5.714,17.5l-.089.886H221.363s1.535,7.677,4.252,10.276a13.6,13.6,0,0,0,9.744,3.9q7.8,0,12.225-7.8l7.264,3.543a21.652,21.652,0,0,1-8.106,8.593A22.416,22.416,0,0,1,235.006-176.987Zm-13.022-28.347h24.892a10.807,10.807,0,0,0-3.676-7.485q-3.322-2.968-8.9-2.968a11.814,11.814,0,0,0-7.928,2.835A13.539,13.539,0,0,0,221.984-205.334Z" transform="translate(5066.103 -301.929)"/><g transform="translate(5173.581 -549)"><rect class="k" width="12.971" height="28.824" rx="6.485" transform="translate(0.096 44.676)"/><rect class="k" width="14.412" height="41.794" rx="7.206" transform="translate(17.39 31.706)"/><rect class="k" width="12.971" height="73.5" rx="6.485" transform="translate(36.125)"/><path class="l" d="M3.891,0h41.79a3.784,3.784,0,0,1,3.891,3.667V7.493a3.784,3.784,0,0,1-3.891,3.667H3.891A3.784,3.784,0,0,1,0,7.493V3.667A3.784,3.784,0,0,1,3.891,0Z" transform="translate(0 62.002)"/></g></g></svg>