<svg xmlns="http://www.w3.org/2000/svg" width="86.393" height="91.912" viewBox="0 0 86.393 91.912"><defs><style>.a{fill:#2e50dc;}</style></defs><path class="a" d="M51.256.689l3.224.766,2.615,1L59.207,3.6l1.612,1.225,1.218,1.3.9,1.3.573,1.264.358,1.149.143,1,.072.766-.036.5v20.45l-.179,2.413L63.4,37.071l-.752,1.762-.931,1.455L60.64,41.475l-1.182.957L58.2,43.16l-1.254.536-1.182.383-1.075.268-.931.153-.752.077H31.627l-2.471.191-2.113.536-1.791.843-1.469,1.034L22.6,48.407l-.967,1.34-.716,1.379-.537,1.417-.358,1.34-.251,1.225-.143,1.034-.072.8V68.666H11.569l-.752-.115-1-.268-1.146-.46-1.254-.689-1.289-1L4.835,64.759,3.582,63,2.436,60.738l-1-2.8-.752-3.37-.5-4.021L0,45.841l.215-4.672.573-3.983.86-3.332,1.146-2.719,1.289-2.183,1.433-1.685L7.02,26l1.5-.919,1.433-.613,1.289-.383,1.146-.191.86-.038h.573l.215.038H43.268V20.718H22.35l-.036-10.532L22.243,8.77l.179-1.3.394-1.187.609-1.072.9-1,1.11-.881,1.361-.766,1.576-.689L30.195,1.3l2.077-.46L34.564.46,37.107.23,39.865.077,42.874,0l4.549.191,3.833.5ZM28.69,8.272l-.824,1.264-.287,1.57.287,1.57.824,1.3,1.182.843,1.469.345,1.469-.345,1.182-.843.824-1.3.287-1.57-.287-1.57-.824-1.264L32.809,7.43l-1.469-.345-1.469.345-1.182.843ZM75.576,23.4l1,.23,1.146.46,1.254.689,1.289,1.034,1.289,1.34,1.254,1.8,1.146,2.259,1,2.8.752,3.37.5,3.983.179,4.71-.215,4.71-.573,3.983-.86,3.293L83.6,60.777,82.31,62.959l-1.433,1.723-1.5,1.264-1.5.919-1.433.613-1.289.345L74,68.015l-.86.077-.573-.038H43.125v3.14H64.043l.036,10.57.072,1.379-.179,1.3-.394,1.187-.609,1.111-.9.957-1.11.919-1.361.766-1.576.651L56.2,90.61l-2.077.5-2.292.345-2.543.268-2.758.153-3.009.038-4.549-.153-3.833-.536-3.224-.766L29.3,89.5,27.186,88.35l-1.612-1.264-1.218-1.3-.9-1.3-.573-1.264-.358-1.149-.143-.957-.072-.766.036-.5V59.4l.179-2.451L23,54.879l.752-1.762.931-1.455,1.075-1.225,1.182-.919,1.254-.766,1.254-.536,1.182-.383L31.7,47.6l.931-.153.752-.077.466-.038H54.766l2.471-.191,2.113-.536,1.791-.8L62.61,44.73,63.792,43.5l.967-1.34.716-1.379.537-1.379.358-1.34.251-1.225.143-1.072.072-.8V23.246h7.486l.5.038.752.115ZM52.4,77.972l-.824,1.264-.287,1.57.287,1.57L52.4,83.64l1.182.881,1.469.306,1.469-.306L57.7,83.64l.824-1.264.287-1.57-.287-1.57L57.7,77.972l-1.182-.881-1.469-.306-1.469.306-1.182.881Z"/></svg>