<svg xmlns="http://www.w3.org/2000/svg" width="94.576" height="92.207" viewBox="0 0 94.576 92.207"><defs><style>.a{fill:#2e50dc;}</style></defs><path class="a" d="M47.288,38.851c-4.655,0-8.429,4.135-8.429,9.236s3.774,9.236,8.429,9.236,8.429-4.135,8.429-9.236S51.943,38.851,47.288,38.851ZM23.676,66.461l-1.86-.518C7.952,62.1,0,55.588,0,48.07S7.952,34.036,21.816,30.2l1.86-.514L24.2,31.7a107.794,107.794,0,0,0,5.371,15.45l.4.92-.4.92A106.769,106.769,0,0,0,24.2,64.444ZM20.953,34.917c-10.537,3.243-17,8.2-17,13.153s6.467,9.906,17,13.153A114.187,114.187,0,0,1,25.61,48.07a113.279,113.279,0,0,1-4.658-13.153ZM70.9,66.461l-.524-2.025A107,107,0,0,0,65,48.99l-.4-.92.4-.92A107.286,107.286,0,0,0,70.376,31.7l.524-2.021,1.864.514C86.624,34.032,94.576,40.548,94.576,48.07S86.624,62.1,72.765,65.942ZM68.966,48.07a113.173,113.173,0,0,1,4.658,13.153c10.541-3.247,17-8.209,17-13.153s-6.467-9.906-17-13.153A113.445,113.445,0,0,1,68.966,48.07ZM20.925,34.9,20.4,32.879c-3.9-15.053-2.715-25.84,3.243-29.605C29.488-.423,38.871,3.943,48.7,15l1.34,1.507L48.7,18.016a100.446,100.446,0,0,0-9.544,12.812l-.532.833-.926.086a85.753,85.753,0,0,0-14.915,2.634ZM28.4,6.266a5.121,5.121,0,0,0-2.778.747C21.7,9.487,21.008,18.089,23.707,29.7a91,91,0,0,1,12.74-2.163,106.134,106.134,0,0,1,8.086-10.985C38.386,9.988,32.566,6.266,28.4,6.266ZM66.184,94.192h0c-5.615,0-12.827-4.633-20.31-13.054l-1.34-1.507,1.34-1.507a100.362,100.362,0,0,0,9.54-12.816l.532-.833.922-.086a85.652,85.652,0,0,0,14.923-2.63l1.86-.514.528,2.021c3.889,15.044,2.711,25.835-3.247,29.6a8.743,8.743,0,0,1-4.749,1.33Zm-16.141-14.6C56.19,86.151,62.01,89.873,66.18,89.873h0a5.108,5.108,0,0,0,2.774-.747c3.917-2.474,4.615-11.08,1.911-22.687A90.629,90.629,0,0,1,58.125,68.6a105.407,105.407,0,0,1-8.082,10.99ZM73.651,34.9l-1.86-.514a85.105,85.105,0,0,0-14.923-2.634l-.922-.086-.532-.833a99.864,99.864,0,0,0-9.54-12.812l-1.34-1.507L45.873,15C55.7,3.947,65.08-.418,70.932,3.274c5.958,3.765,7.141,14.552,3.247,29.6ZM58.125,27.533A90.341,90.341,0,0,1,70.869,29.7c2.7-11.607,2.006-20.209-1.911-22.683-3.893-2.466-11.211,1.313-18.915,9.534a106.152,106.152,0,0,1,8.082,10.985ZM28.4,94.192a8.743,8.743,0,0,1-4.752-1.33C17.686,89.1,16.5,78.314,20.4,63.265l.52-2.021,1.86.514A85.562,85.562,0,0,0,37.7,64.388l.926.086.528.833a100.64,100.64,0,0,0,9.544,12.816l1.34,1.507-1.34,1.507C41.216,89.558,34,94.192,28.4,94.192ZM23.707,66.439C21,78.046,21.7,86.652,25.618,89.126c3.889,2.431,11.2-1.317,18.915-9.534A106.784,106.784,0,0,1,36.447,68.6a90.474,90.474,0,0,1-12.74-2.163Zm23.581,2.712c-3.243,0-6.577-.155-9.915-.458l-.926-.086-.532-.833q-2.832-4.459-5.32-9.163T26,48.99l-.394-.92L26,47.15q2.114-4.913,4.595-9.621c1.631-3.092,3.424-6.175,5.32-9.163l.532-.833.926-.086a107.151,107.151,0,0,1,19.833,0l.922.086.528.833A133.12,133.12,0,0,1,68.576,47.15l.4.92-.4.92a131.321,131.321,0,0,1-9.919,18.784l-.528.833-.922.086C53.869,69,50.531,69.151,47.288,69.151ZM38.63,64.47a104.482,104.482,0,0,0,17.319,0A128.7,128.7,0,0,0,64.6,48.07a126.824,126.824,0,0,0-8.658-16.4,104.433,104.433,0,0,0-17.315,0,126.345,126.345,0,0,0-8.658,16.4,129.172,129.172,0,0,0,8.658,16.4Z" transform="translate(0 -1.986)"/></svg>